<svg id="Layer_1" data-name="Layer 1" xmlns="http://www.w3.org/2000/svg" viewBox="0 0 322.06 236.78"><defs><style>.cls-1{font-size:90.7px;font-family:BodoniSvtyTwoITCTT-Bold, "Bodoni 72";font-weight:700;}.cls-1,.cls-2{fill:#fff;}.cls-2{font-size:21.69px;font-family:Abel-Regular, Abel;}.cls-3{letter-spacing:0.3em;}.cls-4{fill:#b8dcf7;}.cls-5{fill:#ddeefd;}.cls-6{fill:#83c9f6;}.cls-7{fill:#ff5959;}.cls-8{fill:#002465;}.cls-9{fill:#9cb2e9;}.cls-10{fill:#c3e2f8;}.cls-11{fill:#aab5ce;}.cls-12{fill:#d0ebfd;}.cls-13{fill:#e1f0fd;}.cls-14{fill:#1f66c6;}.cls-15{fill:#f8e1ac;}</style></defs><text class="cls-1" transform="translate(0 207.3)">shoppies</text><text class="cls-2" transform="translate(138.2 152.26)"><tspan class="cls-3">TH</tspan><tspan x="34.51" y="0">E</tspan></text><g id="_34_Film_Movie_Photo_Image_Slideshow_Projection" data-name="34 Film Movie Photo Image Slideshow Projection"><path class="cls-4" d="M228.39,344.81,209.5,296.36a2.94,2.94,0,0,1,1.7-3.88l35.41-13.81a3,3,0,0,1,3.88,1.71l18.89,48.45a2.94,2.94,0,0,1-1.7,3.88l-35.41,13.8A2.94,2.94,0,0,1,228.39,344.81Z" transform="translate(-124.06 -277.18)"/><polygon class="cls-5" points="106.37 45.37 102.38 35.12 131.64 44.1 135.64 54.35 106.37 45.37"/><polygon class="cls-5" points="100.92 31.39 99.84 28.6 129.1 37.58 130.19 40.38 100.92 31.39"/><polygon class="cls-5" points="98.75 25.8 98.38 24.87 127.64 33.85 128.01 34.79 98.75 25.8"/><polygon class="cls-5" points="116.02 4.04 119.65 13.36 104.28 8.62 116.02 4.04"/><polygon class="cls-5" points="114.73 66.8 112.55 61.21 121.81 64.03 114.73 66.8"/><path class="cls-6" d="M261.15,335.25l-21.07-54,6.53-2.55a3,3,0,0,1,3.88,1.71l18.89,48.45a2.94,2.94,0,0,1-1.7,3.88Z" transform="translate(-124.06 -277.18)"/><path class="cls-6" d="M228.39,344.81,209.5,296.36a2.94,2.94,0,0,1,1.7-3.88l6.52-2.55,21.07,54-6.52,2.54A2.94,2.94,0,0,1,228.39,344.81Z" transform="translate(-124.06 -277.18)"/><polygon class="cls-7" points="120.6 24.04 118.89 26 118.61 28.57 116.66 26.87 114.08 26.59 115.78 24.63 116.07 22.05 118.02 23.76 120.6 24.04"/><polygon class="cls-7" points="112.9 37.88 111.8 39.17 111.54 40.99 110.21 39.79 108.43 39.63 109.59 38.21 109.79 36.52 111.18 37.59 112.9 37.88"/><polygon class="cls-7" points="123.14 54.5 122.33 55.46 122.17 56.7 121.31 55.86 120.06 55.7 120.87 54.74 120.97 53.63 121.89 54.34 123.14 54.5"/><path class="cls-8" d="M270.68,329.4l-19.62-50.32a3,3,0,0,0-3.88-1.7l-37.27,14.53a3,3,0,0,0-1.71,3.88l19.62,50.31a3,3,0,0,0,3.88,1.71L269,333.28A3,3,0,0,0,270.68,329.4ZM231,346a1,1,0,0,1-1.3-.57l-19.61-50.31a1,1,0,0,1,.56-1.3l37.27-14.53a1,1,0,0,1,1.3.57l19.61,50.31a1,1,0,0,1-.57,1.3Z" transform="translate(-124.06 -277.18)"/><path class="cls-8" d="M246.15,288.51a.94.94,0,0,0,1.29.57l1.87-.73a1,1,0,1,0-.73-1.86l-1.86.73A.94.94,0,0,0,246.15,288.51Z" transform="translate(-124.06 -277.18)"/><path class="cls-8" d="M244.33,283.85a1,1,0,0,0,1.3.57l1.86-.72a1,1,0,1,0-.73-1.87l-1.86.73A.94.94,0,0,0,244.33,283.85Z" transform="translate(-124.06 -277.18)"/><path class="cls-8" d="M248,293.17a.94.94,0,0,0,1.29.57l1.86-.73a1,1,0,0,0-.72-1.86l-1.87.73A.93.93,0,0,0,248,293.17Z" transform="translate(-124.06 -277.18)"/><path class="cls-8" d="M249.78,297.83a1,1,0,0,0,1.3.57l1.86-.73a1,1,0,1,0-.73-1.86l-1.86.72A1,1,0,0,0,249.78,297.83Z" transform="translate(-124.06 -277.18)"/><path class="cls-8" d="M251.6,302.49a1,1,0,0,0,1.29.57l1.87-.73a.94.94,0,0,0,.56-1.3.93.93,0,0,0-1.29-.56l-1.86.72A1,1,0,0,0,251.6,302.49Z" transform="translate(-124.06 -277.18)"/><path class="cls-8" d="M253.41,307.15a1,1,0,0,0,1.3.56l1.86-.72a1,1,0,0,0-.72-1.87l-1.87.73A1,1,0,0,0,253.41,307.15Z" transform="translate(-124.06 -277.18)"/><path class="cls-8" d="M255.23,311.8a1,1,0,0,0,1.3.57l1.86-.72a1,1,0,1,0-.73-1.87l-1.86.73A.94.94,0,0,0,255.23,311.8Z" transform="translate(-124.06 -277.18)"/><path class="cls-8" d="M257.05,316.46a.94.94,0,0,0,1.29.57l1.86-.73a1,1,0,1,0-.72-1.86l-1.86.73A.94.94,0,0,0,257.05,316.46Z" transform="translate(-124.06 -277.18)"/><path class="cls-8" d="M258.86,321.12a1,1,0,0,0,1.3.57L262,321a.94.94,0,0,0,.57-1.29,1,1,0,0,0-1.3-.57l-1.86.73A.94.94,0,0,0,258.86,321.12Z" transform="translate(-124.06 -277.18)"/><path class="cls-8" d="M266.22,329a.94.94,0,0,0-1.29-.56l-1.87.72a1,1,0,0,0,.73,1.87l1.86-.73A1,1,0,0,0,266.22,329Z" transform="translate(-124.06 -277.18)"/><path class="cls-8" d="M260.68,325.78a.94.94,0,0,0,1.29.57l1.87-.73a1,1,0,1,0-.73-1.86l-1.86.72A1,1,0,0,0,260.68,325.78Z" transform="translate(-124.06 -277.18)"/><path class="cls-8" d="M218.2,299.41a1,1,0,0,0-1.3-.57l-1.86.73a.94.94,0,0,0-.57,1.29,1,1,0,0,0,1.3.57l1.86-.73A.94.94,0,0,0,218.2,299.41Z" transform="translate(-124.06 -277.18)"/><path class="cls-8" d="M216.38,294.75a.94.94,0,0,0-1.29-.57l-1.87.73a1,1,0,0,0,.73,1.86l1.86-.72A1,1,0,0,0,216.38,294.75Z" transform="translate(-124.06 -277.18)"/><path class="cls-8" d="M220,304.07a.94.94,0,0,0-1.29-.57l-1.86.73a1,1,0,1,0,.72,1.86l1.87-.73A.93.93,0,0,0,220,304.07Z" transform="translate(-124.06 -277.18)"/><path class="cls-8" d="M221.83,308.73a.94.94,0,0,0-1.29-.57l-1.87.72a1,1,0,0,0,.73,1.87l1.86-.73A.94.94,0,0,0,221.83,308.73Z" transform="translate(-124.06 -277.18)"/><path class="cls-8" d="M223.65,313.38a1,1,0,0,0-1.3-.56l-1.86.72a1,1,0,0,0,.73,1.87l1.86-.73A1,1,0,0,0,223.65,313.38Z" transform="translate(-124.06 -277.18)"/><path class="cls-8" d="M225.46,318a.94.94,0,0,0-1.29-.57l-1.86.73a1,1,0,0,0-.57,1.3.94.94,0,0,0,1.29.56l1.86-.72A1,1,0,0,0,225.46,318Z" transform="translate(-124.06 -277.18)"/><path class="cls-8" d="M227.28,322.7a1,1,0,0,0-1.3-.57l-1.86.73a1,1,0,1,0,.73,1.86l1.86-.72A1,1,0,0,0,227.28,322.7Z" transform="translate(-124.06 -277.18)"/><path class="cls-8" d="M229.1,327.36a1,1,0,0,0-1.3-.57l-1.86.73a1,1,0,1,0,.72,1.86l1.87-.73A.94.94,0,0,0,229.1,327.36Z" transform="translate(-124.06 -277.18)"/><path class="cls-8" d="M230.91,332a.94.94,0,0,0-1.29-.57l-1.87.73a1,1,0,0,0,.73,1.86l1.86-.73A.94.94,0,0,0,230.91,332Z" transform="translate(-124.06 -277.18)"/><path class="cls-8" d="M234.54,341.34a.94.94,0,0,0-1.29-.57l-1.86.72a1,1,0,0,0,.72,1.87l1.87-.73A.94.94,0,0,0,234.54,341.34Z" transform="translate(-124.06 -277.18)"/><path class="cls-8" d="M232.73,336.68a1,1,0,0,0-1.3-.57l-1.86.72a1,1,0,0,0,.73,1.87l1.86-.73A.94.94,0,0,0,232.73,336.68Z" transform="translate(-124.06 -277.18)"/><path class="cls-8" d="M258.77,331.89a.94.94,0,0,0,1.29.57,1,1,0,0,0,.57-1.3l-18.16-46.58a1,1,0,1,0-1.86.73l3.27,8.38-20.5,8-3.27-8.38a1,1,0,0,0-1.3-.57.94.94,0,0,0-.56,1.29l18.16,46.59a.94.94,0,0,0,1.29.57,1,1,0,0,0,.57-1.3L235,331.5l20.5-8Zm-24.49-2.26L224.1,303.55l20.5-8,10.17,26.09Z" transform="translate(-124.06 -277.18)"/></g><path class="cls-9" d="M254.82,325.8h58.67v46.93a2.94,2.94,0,0,1-2.93,2.94H257.75a2.94,2.94,0,0,1-2.93-2.94V325.8Z" transform="translate(-124.06 -277.18)"/><path class="cls-10" d="M297.36,350.73v5.87a1.47,1.47,0,0,1-1.47,1.47H272.42A1.47,1.47,0,0,1,271,356.6v-5.87a1.46,1.46,0,0,1,1.47-1.46h23.47A1.46,1.46,0,0,1,297.36,350.73Z" transform="translate(-124.06 -277.18)"/><path class="cls-4" d="M319.36,361l8.15,5.38a2.91,2.91,0,0,0,1.62.49h3.43A1.47,1.47,0,0,0,334,365.4V341.93a1.47,1.47,0,0,0-1.47-1.47h-3.43a2.91,2.91,0,0,0-1.62.49l-8.15,5.38Z" transform="translate(-124.06 -277.18)"/><path class="cls-11" d="M254.82,369.8h58.67v2.93a2.94,2.94,0,0,1-2.93,2.94H257.75a2.94,2.94,0,0,1-2.93-2.94V369.8Z" transform="translate(-124.06 -277.18)"/><path class="cls-12" d="M332.56,341.93H334V365.4h-1.47a4.4,4.4,0,0,1-4.4-4.4V346.33A4.4,4.4,0,0,1,332.56,341.93Z" transform="translate(-124.06 -277.18)"/><path class="cls-13" d="M297.36,350.73v5.87a1.47,1.47,0,0,1-1.47,1.47h-7.34l8.38-8.38A1.5,1.5,0,0,1,297.36,350.73Z" transform="translate(-124.06 -277.18)"/><polygon class="cls-13" points="167.42 72.09 158.62 80.89 149.82 80.89 158.62 72.09 167.42 72.09"/><polygon class="cls-13" points="152.76 72.09 148.35 76.49 148.35 72.09 152.76 72.09"/><circle class="cls-7" cx="179.16" cy="41.29" r="22"/><path class="cls-14" d="M310,339.41c-6.57,2.12-14.54,1.2-22.22-4.3a3.76,3.76,0,0,1-.85-.84c-5.47-7.33-6.66-15-4.95-21.46a3.69,3.69,0,0,1,4.48-2.66,4.55,4.55,0,0,1,.73.27h0a3.72,3.72,0,0,1,1.88,4.32,16.65,16.65,0,0,0,3.31,14.33,4.2,4.2,0,0,0,1,.91,16.73,16.73,0,0,0,14.3,2.46,3.71,3.71,0,0,1,4.4,1.64h0a3.69,3.69,0,0,1-1.4,5A3.79,3.79,0,0,1,310,339.41Z" transform="translate(-124.06 -277.18)"/><circle class="cls-11" cx="179.16" cy="41.29" r="4.4"/><circle class="cls-14" cx="135.15" cy="50.09" r="16.14"/><circle class="cls-11" cx="135.15" cy="50.09" r="4.4"/><path class="cls-15" d="M304.69,381.54h0a2.94,2.94,0,0,1-2.93-2.94v-2.93h5.86v2.93A2.94,2.94,0,0,1,304.69,381.54Z" transform="translate(-124.06 -277.18)"/><path class="cls-15" d="M263.62,381.54h0a2.94,2.94,0,0,1-2.94-2.94v-2.93h5.87v2.93A2.94,2.94,0,0,1,263.62,381.54Z" transform="translate(-124.06 -277.18)"/><rect class="cls-11" x="189.43" y="69.16" width="5.87" height="14.67"/><path class="cls-7" d="M259.22,311.13a3.67,3.67,0,1,0,0,7.33,8.8,8.8,0,0,1,8.8,8.8,3.67,3.67,0,1,0,7.33,0A16.13,16.13,0,0,0,259.22,311.13Z" transform="translate(-124.06 -277.18)"/><path class="cls-8" d="M303.22,306.73a1.47,1.47,0,0,0,1.47-1.47v-2.93a1.47,1.47,0,1,0-2.93,0v2.93A1.46,1.46,0,0,0,303.22,306.73Z" transform="translate(-124.06 -277.18)"/><path class="cls-8" d="M303.22,312.59a5.87,5.87,0,1,0,5.87,5.87A5.86,5.86,0,0,0,303.22,312.59Zm0,8.81a2.94,2.94,0,1,1,2.94-2.94A2.94,2.94,0,0,1,303.22,321.4Z" transform="translate(-124.06 -277.18)"/><path class="cls-8" d="M265.09,327.26a5.87,5.87,0,1,0-5.87,5.87A5.86,5.86,0,0,0,265.09,327.26Zm-8.81,0a2.94,2.94,0,1,1,2.94,2.94A2.94,2.94,0,0,1,256.28,327.26Z" transform="translate(-124.06 -277.18)"/><path class="cls-8" d="M332.56,339h-3.43a4.33,4.33,0,0,0-2.42.73l-7.79,5.13h-4v-6.1a23.47,23.47,0,1,0-34.46-14.43h-3.93a17.6,17.6,0,1,0-23.22,19.52v28.88a4.4,4.4,0,0,0,4.4,4.4h1.47v1.47a4.4,4.4,0,0,0,8.8,0v-1.47h32.27v1.47a4.4,4.4,0,0,0,8.8,0v-1.47h1.47a4.4,4.4,0,0,0,4.4-4.4h0V362.47h4l7.77,5.13a4.35,4.35,0,0,0,2.42.73h3.45a2.93,2.93,0,0,0,2.93-2.93V341.93A2.93,2.93,0,0,0,332.56,339Zm-79.21,1.7a14.37,14.37,0,1,1,2.93.94A14.38,14.38,0,0,1,253.35,340.7Zm11.74,37.9a1.47,1.47,0,1,1-2.94,0v-1.47h2.94Zm41.07,0a1.47,1.47,0,1,1-2.94,0v-1.47h2.94ZM312,344.86v27.87a1.46,1.46,0,0,1-1.46,1.47H257.75a1.47,1.47,0,0,1-1.47-1.47v-1.46h39.61a1.47,1.47,0,0,0,0-2.94H256.28V344.62a17.6,17.6,0,0,0,20.29-14.43,17,17,0,0,0,.25-2.93h4.65A23.46,23.46,0,0,0,312,340.21Zm0-7.84A20.67,20.67,0,1,1,315,335.3,19.65,19.65,0,0,1,312,337Zm5.87,22.51H315V347.8h2.93Zm14.67,5.87h-3.43a1.46,1.46,0,0,1-.81-.25l-7.5-4.94V347.12l7.5-4.94a1.46,1.46,0,0,1,.81-.25h3.43Z" transform="translate(-124.06 -277.18)"/><path class="cls-8" d="M326.69,347.8v11.73a1.47,1.47,0,1,0,2.94,0V347.8a1.47,1.47,0,1,0-2.94,0Z" transform="translate(-124.06 -277.18)"/><path class="cls-8" d="M295.89,347.8H272.42a2.93,2.93,0,0,0-2.93,2.93v5.87a2.93,2.93,0,0,0,2.93,2.93h23.47a2.93,2.93,0,0,0,2.93-2.93v-5.87A2.93,2.93,0,0,0,295.89,347.8Zm-23.47,8.8v-5.87h23.47v5.87Z" transform="translate(-124.06 -277.18)"/><path class="cls-8" d="M300.29,369.8a1.47,1.47,0,0,0,1.47,1.47h5.86a1.47,1.47,0,0,0,0-2.94h-5.86A1.47,1.47,0,0,0,300.29,369.8Z" transform="translate(-124.06 -277.18)"/><path class="cls-8" d="M303.22,330.2a1.46,1.46,0,0,0-1.46,1.46v2.94a1.47,1.47,0,0,0,2.93,0v-2.94A1.46,1.46,0,0,0,303.22,330.2Z" transform="translate(-124.06 -277.18)"/><path class="cls-8" d="M297.36,328.63a1.47,1.47,0,0,0-2,.53h0l-1.47,2.54a1.47,1.47,0,0,0,2.54,1.46l1.46-2.53a1.47,1.47,0,0,0-.52-2Z" transform="translate(-124.06 -277.18)"/><path class="cls-8" d="M291.06,323.79l-2.53,1.46a1.47,1.47,0,0,0,1.46,2.54l2.54-1.47a1.46,1.46,0,0,0-1.47-2.53Z" transform="translate(-124.06 -277.18)"/><path class="cls-8" d="M316.42,319.93h2.94a1.47,1.47,0,0,0,0-2.94h-2.94a1.47,1.47,0,0,0,0,2.94Z" transform="translate(-124.06 -277.18)"/><path class="cls-8" d="M291.49,318.46A1.47,1.47,0,0,0,290,317h-2.93a1.47,1.47,0,1,0,0,2.94H290A1.47,1.47,0,0,0,291.49,318.46Z" transform="translate(-124.06 -277.18)"/></svg>