<svg id="Layer_1" data-name="Layer 1" xmlns="http://www.w3.org/2000/svg" viewBox="0 0 474.59 132.76"><defs><style>.cls-1{font-size:90.7px;font-family:BodoniSvtyTwoITCTT-Bold, "Bodoni 72";font-weight:700;}.cls-1,.cls-2{fill:#fff;}.cls-2{font-size:21.69px;font-family:Abel-Regular, Abel;letter-spacing:0.3em;}.cls-3{fill:#b8dcf7;}.cls-4{fill:#ddeefd;}.cls-5{fill:#83c9f6;}.cls-6{fill:#ff5959;}.cls-7{fill:#002465;}.cls-8{fill:#9cb2e9;}.cls-9{fill:#c3e2f8;}.cls-10{fill:#aab5ce;}.cls-11{fill:#d0ebfd;}.cls-12{fill:#e1f0fd;}.cls-13{fill:#1f66c6;}.cls-14{fill:#f8e1ac;}</style></defs><text class="cls-1" transform="translate(152.53 103.28)">shoppies</text><text class="cls-2" transform="translate(287.47 48.24)">THE</text><g id="_34_Film_Movie_Photo_Image_Slideshow_Projection" data-name="34 Film Movie Photo Image Slideshow Projection"><path class="cls-3" d="M67.89,396.82,49,348.37a2.94,2.94,0,0,1,1.7-3.88l35.41-13.81A2.94,2.94,0,0,1,90,332.39l18.89,48.45a2.94,2.94,0,0,1-1.71,3.88l-35.4,13.8A3,3,0,0,1,67.89,396.82Z" transform="translate(-47.5 -329.19)"/><polygon class="cls-4" points="22.44 45.37 18.45 35.12 47.71 44.1 51.7 54.35 22.44 45.37"/><polygon class="cls-4" points="16.99 31.39 15.9 28.6 45.16 37.58 46.26 40.38 16.99 31.39"/><polygon class="cls-4" points="14.81 25.8 14.45 24.87 43.71 33.85 44.08 34.79 14.81 25.8"/><polygon class="cls-4" points="32.09 4.04 35.72 13.36 20.35 8.62 32.09 4.04"/><polygon class="cls-4" points="30.8 66.8 28.62 61.21 37.88 64.03 30.8 66.8"/><path class="cls-5" d="M100.66,387.26l-21.07-54,6.53-2.55A2.94,2.94,0,0,1,90,332.39l18.89,48.45a2.94,2.94,0,0,1-1.71,3.88Z" transform="translate(-47.5 -329.19)"/><path class="cls-5" d="M67.89,396.82,49,348.37a2.94,2.94,0,0,1,1.7-3.88l6.52-2.55L78.3,396l-6.52,2.54A3,3,0,0,1,67.89,396.82Z" transform="translate(-47.5 -329.19)"/><polygon class="cls-6" points="36.67 24.04 34.96 26 34.68 28.57 32.72 26.87 30.14 26.59 31.85 24.63 32.13 22.05 34.09 23.76 36.67 24.04"/><polygon class="cls-6" points="28.97 37.88 27.86 39.17 27.61 40.99 26.28 39.79 24.5 39.63 25.66 38.21 25.86 36.52 27.25 37.59 28.97 37.88"/><polygon class="cls-6" points="39.2 54.5 38.4 55.46 38.24 56.7 37.37 55.86 36.13 55.7 36.94 54.74 37.04 53.63 37.96 54.34 39.2 54.5"/><path class="cls-7" d="M110.18,381.4,90.57,331.09a3,3,0,0,0-3.89-1.7L49.42,343.92a3,3,0,0,0-1.71,3.88l19.62,50.31a3,3,0,0,0,3.88,1.71l37.27-14.53A3,3,0,0,0,110.18,381.4ZM70.48,398a1,1,0,0,1-1.29-.57L49.57,347.08a1,1,0,0,1,.57-1.3l37.27-14.53a1,1,0,0,1,1.3.57l19.61,50.31a1,1,0,0,1-.57,1.3Z" transform="translate(-47.5 -329.19)"/><path class="cls-7" d="M85.66,340.52a.94.94,0,0,0,1.29.57l1.87-.73a1,1,0,0,0-.73-1.86l-1.86.73A.94.94,0,0,0,85.66,340.52Z" transform="translate(-47.5 -329.19)"/><path class="cls-7" d="M83.84,335.86a1,1,0,0,0,1.3.57L87,335.7a.94.94,0,0,0,.57-1.29,1,1,0,0,0-1.3-.57l-1.86.73A.94.94,0,0,0,83.84,335.86Z" transform="translate(-47.5 -329.19)"/><path class="cls-7" d="M87.47,345.18a1,1,0,0,0,1.3.57l1.86-.73a1,1,0,1,0-.72-1.86l-1.87.72A1,1,0,0,0,87.47,345.18Z" transform="translate(-47.5 -329.19)"/><path class="cls-7" d="M89.29,349.84a1,1,0,0,0,1.3.57l1.86-.73a1,1,0,1,0-.73-1.86l-1.86.72A1,1,0,0,0,89.29,349.84Z" transform="translate(-47.5 -329.19)"/><path class="cls-7" d="M91.11,354.5a.93.93,0,0,0,1.29.56l1.86-.72a1,1,0,0,0-.72-1.87l-1.87.73A1,1,0,0,0,91.11,354.5Z" transform="translate(-47.5 -329.19)"/><path class="cls-7" d="M92.92,359.15a1,1,0,0,0,1.3.57l1.86-.72a1,1,0,1,0-.73-1.87l-1.86.73A.94.94,0,0,0,92.92,359.15Z" transform="translate(-47.5 -329.19)"/><path class="cls-7" d="M94.74,363.81a.94.94,0,0,0,1.29.57l1.87-.73a1,1,0,1,0-.73-1.86l-1.86.73A.94.94,0,0,0,94.74,363.81Z" transform="translate(-47.5 -329.19)"/><path class="cls-7" d="M96.56,368.47a.94.94,0,0,0,1.29.57l1.86-.73a1,1,0,0,0-.72-1.86l-1.87.73A.93.93,0,0,0,96.56,368.47Z" transform="translate(-47.5 -329.19)"/><path class="cls-7" d="M98.37,373.13a1,1,0,0,0,1.3.57l1.86-.73a.94.94,0,0,0,.57-1.29,1,1,0,0,0-1.3-.57l-1.86.72A1,1,0,0,0,98.37,373.13Z" transform="translate(-47.5 -329.19)"/><path class="cls-7" d="M105.73,381a.94.94,0,0,0-1.29-.56l-1.87.72a1,1,0,0,0,.73,1.87l1.86-.73A1,1,0,0,0,105.73,381Z" transform="translate(-47.5 -329.19)"/><path class="cls-7" d="M100.19,377.79a1,1,0,0,0,1.29.57l1.87-.73a1,1,0,0,0-.73-1.86l-1.86.72A1,1,0,0,0,100.19,377.79Z" transform="translate(-47.5 -329.19)"/><path class="cls-7" d="M57.71,351.42a1,1,0,0,0-1.3-.57l-1.86.73a.94.94,0,0,0-.57,1.29,1,1,0,0,0,1.3.57l1.86-.73A.94.94,0,0,0,57.71,351.42Z" transform="translate(-47.5 -329.19)"/><path class="cls-7" d="M55.89,346.76a.94.94,0,0,0-1.29-.57l-1.87.73a1,1,0,1,0,.73,1.86l1.86-.73A.94.94,0,0,0,55.89,346.76Z" transform="translate(-47.5 -329.19)"/><path class="cls-7" d="M59.52,356.08a.94.94,0,0,0-1.29-.57l-1.87.72a1,1,0,0,0-.56,1.3.94.94,0,0,0,1.29.57l1.86-.73A.94.94,0,0,0,59.52,356.08Z" transform="translate(-47.5 -329.19)"/><path class="cls-7" d="M61.34,360.74a1,1,0,0,0-1.3-.57l-1.86.72a1,1,0,0,0,.73,1.87l1.86-.73A.94.94,0,0,0,61.34,360.74Z" transform="translate(-47.5 -329.19)"/><path class="cls-7" d="M63.16,365.39a.94.94,0,0,0-1.3-.56l-1.86.72a1,1,0,0,0-.57,1.3.93.93,0,0,0,1.29.56l1.87-.72A1,1,0,0,0,63.16,365.39Z" transform="translate(-47.5 -329.19)"/><path class="cls-7" d="M65,370.05a1,1,0,0,0-1.29-.57l-1.87.73a1,1,0,0,0,.73,1.86l1.86-.72A1,1,0,0,0,65,370.05Z" transform="translate(-47.5 -329.19)"/><path class="cls-7" d="M66.79,374.71a1,1,0,0,0-1.3-.57l-1.86.73a.94.94,0,0,0-.57,1.29,1,1,0,0,0,1.3.57l1.86-.72A1,1,0,0,0,66.79,374.71Z" transform="translate(-47.5 -329.19)"/><path class="cls-7" d="M68.6,379.37a.94.94,0,0,0-1.29-.57l-1.86.73a1,1,0,1,0,.72,1.86l1.87-.73A.93.93,0,0,0,68.6,379.37Z" transform="translate(-47.5 -329.19)"/><path class="cls-7" d="M70.42,384a.94.94,0,0,0-1.29-.57l-1.87.73a1,1,0,1,0,.73,1.86l1.86-.73A.94.94,0,0,0,70.42,384Z" transform="translate(-47.5 -329.19)"/><path class="cls-7" d="M74.05,393.34a.94.94,0,0,0-1.29-.56l-1.87.72a1,1,0,0,0,.73,1.87l1.86-.73A1,1,0,0,0,74.05,393.34Z" transform="translate(-47.5 -329.19)"/><path class="cls-7" d="M72.24,388.69a1,1,0,0,0-1.3-.57l-1.86.72a1,1,0,0,0,.73,1.87l1.86-.73A1,1,0,0,0,72.24,388.69Z" transform="translate(-47.5 -329.19)"/><path class="cls-7" d="M98.28,383.9a.94.94,0,0,0,1.29.57,1,1,0,0,0,.57-1.3L82,336.59a1,1,0,1,0-1.87.73l3.27,8.38-20.49,8-3.27-8.38a1,1,0,0,0-1.87.72l18.17,46.59a1,1,0,1,0,1.86-.73l-3.27-8.38,20.5-8Zm-24.5-2.26L63.61,355.56l20.5-8,10.17,26.09Z" transform="translate(-47.5 -329.19)"/></g><path class="cls-8" d="M94.33,377.8H153v46.94a2.94,2.94,0,0,1-2.93,2.94H97.26a2.94,2.94,0,0,1-2.93-2.94V377.8Z" transform="translate(-47.5 -329.19)"/><path class="cls-9" d="M136.86,402.74v5.87a1.46,1.46,0,0,1-1.46,1.47H111.93a1.47,1.47,0,0,1-1.47-1.47v-5.87a1.47,1.47,0,0,1,1.47-1.47H135.4A1.46,1.46,0,0,1,136.86,402.74Z" transform="translate(-47.5 -329.19)"/><path class="cls-3" d="M158.87,413l8.15,5.38a2.91,2.91,0,0,0,1.62.49h3.43a1.46,1.46,0,0,0,1.46-1.47V393.94a1.46,1.46,0,0,0-1.46-1.47h-3.43A2.91,2.91,0,0,0,167,393l-8.15,5.38Z" transform="translate(-47.5 -329.19)"/><path class="cls-10" d="M94.33,421.81H153v2.93a2.94,2.94,0,0,1-2.93,2.94H97.26a2.94,2.94,0,0,1-2.93-2.94v-2.93Z" transform="translate(-47.5 -329.19)"/><path class="cls-11" d="M172.07,393.94h1.46v23.47h-1.46a4.4,4.4,0,0,1-4.4-4.4V398.34A4.4,4.4,0,0,1,172.07,393.94Z" transform="translate(-47.5 -329.19)"/><path class="cls-12" d="M136.86,402.74v5.87a1.46,1.46,0,0,1-1.46,1.47h-7.34l8.38-8.38A1.45,1.45,0,0,1,136.86,402.74Z" transform="translate(-47.5 -329.19)"/><polygon class="cls-12" points="83.49 72.09 74.69 80.89 65.89 80.89 74.69 72.09 83.49 72.09"/><polygon class="cls-12" points="68.82 72.09 64.42 76.49 64.42 72.09 68.82 72.09"/><circle class="cls-6" cx="95.23" cy="41.29" r="22"/><path class="cls-13" d="M149.48,391.42c-6.57,2.12-14.54,1.2-22.22-4.3a3.57,3.57,0,0,1-.85-.84c-5.48-7.33-6.66-15-5-21.46a3.69,3.69,0,0,1,4.48-2.66,4.55,4.55,0,0,1,.73.27h0a3.72,3.72,0,0,1,1.88,4.31,16.66,16.66,0,0,0,3.31,14.34,4.2,4.2,0,0,0,1,.91,16.73,16.73,0,0,0,14.3,2.46,3.71,3.71,0,0,1,4.4,1.64h0a3.69,3.69,0,0,1-1.4,5A4.17,4.17,0,0,1,149.48,391.42Z" transform="translate(-47.5 -329.19)"/><circle class="cls-10" cx="95.23" cy="41.29" r="4.4"/><circle class="cls-13" cx="51.22" cy="50.09" r="16.14"/><circle class="cls-10" cx="51.22" cy="50.09" r="4.4"/><path class="cls-14" d="M144.2,433.54h0a2.94,2.94,0,0,1-2.94-2.93v-2.93h5.87v2.93A2.93,2.93,0,0,1,144.2,433.54Z" transform="translate(-47.5 -329.19)"/><path class="cls-14" d="M103.13,433.54h0a2.94,2.94,0,0,1-2.94-2.93v-2.93h5.87v2.93A2.93,2.93,0,0,1,103.13,433.54Z" transform="translate(-47.5 -329.19)"/><rect class="cls-10" x="105.49" y="69.16" width="5.87" height="14.67"/><path class="cls-6" d="M98.73,363.14a3.67,3.67,0,1,0,0,7.33,8.8,8.8,0,0,1,8.8,8.8,3.67,3.67,0,1,0,7.33,0A16.13,16.13,0,0,0,98.73,363.14Z" transform="translate(-47.5 -329.19)"/><path class="cls-7" d="M142.73,358.74a1.47,1.47,0,0,0,1.47-1.47v-2.93a1.47,1.47,0,0,0-2.94,0v2.93A1.47,1.47,0,0,0,142.73,358.74Z" transform="translate(-47.5 -329.19)"/><path class="cls-7" d="M142.73,364.6a5.87,5.87,0,1,0,5.87,5.87A5.87,5.87,0,0,0,142.73,364.6Zm0,8.8a2.93,2.93,0,1,1,2.93-2.93A2.93,2.93,0,0,1,142.73,373.4Z" transform="translate(-47.5 -329.19)"/><path class="cls-7" d="M104.59,379.27a5.87,5.87,0,1,0-5.86,5.87A5.86,5.86,0,0,0,104.59,379.27Zm-8.8,0a2.94,2.94,0,1,1,2.94,2.94A2.94,2.94,0,0,1,95.79,379.27Z" transform="translate(-47.5 -329.19)"/><path class="cls-7" d="M172.07,391h-3.43a4.31,4.31,0,0,0-2.42.73l-7.79,5.13h-4v-6.1A23.47,23.47,0,1,0,120,376.34h-3.93a17.6,17.6,0,1,0-23.22,19.52v28.88a4.4,4.4,0,0,0,4.4,4.4h1.47v1.47a4.4,4.4,0,0,0,8.8,0v-1.47H139.8v1.47a4.4,4.4,0,0,0,8.8,0v-1.47h1.47a4.4,4.4,0,0,0,4.4-4.4h0V414.48h4l7.77,5.13a4.35,4.35,0,0,0,2.42.73h3.45a2.93,2.93,0,0,0,2.93-2.93V393.94A2.93,2.93,0,0,0,172.07,391Zm-79.21,1.7a14.36,14.36,0,1,1,2.93.94A14.38,14.38,0,0,1,92.86,392.71Zm11.73,37.9a1.47,1.47,0,1,1-2.93,0v-1.47h2.93Zm41.07,0a1.47,1.47,0,1,1-2.93,0v-1.47h2.93Zm5.87-33.74v27.87a1.46,1.46,0,0,1-1.46,1.47H97.26a1.47,1.47,0,0,1-1.47-1.47v-1.46H135.4a1.47,1.47,0,0,0,0-2.94H95.79V396.62a17.6,17.6,0,0,0,20.29-14.42,17,17,0,0,0,.25-2.93H121a23.47,23.47,0,0,0,30.55,13Zm0-7.84a20.67,20.67,0,1,1,2.94-1.72A19.65,19.65,0,0,1,151.53,389Zm5.87,22.51h-2.93V399.81h2.93Zm14.67,5.87h-3.43a1.46,1.46,0,0,1-.81-.25l-7.5-4.94V399.13l7.5-4.94a1.46,1.46,0,0,1,.81-.25h3.43Z" transform="translate(-47.5 -329.19)"/><path class="cls-7" d="M166.2,399.81v11.73a1.47,1.47,0,1,0,2.93,0V399.81a1.47,1.47,0,1,0-2.93,0Z" transform="translate(-47.5 -329.19)"/><path class="cls-7" d="M135.4,399.81H111.93a2.94,2.94,0,0,0-2.94,2.93v5.87a2.94,2.94,0,0,0,2.94,2.93H135.4a2.93,2.93,0,0,0,2.93-2.93v-5.87A2.93,2.93,0,0,0,135.4,399.81Zm-23.47,8.8v-5.87H135.4v5.87Z" transform="translate(-47.5 -329.19)"/><path class="cls-7" d="M139.8,421.81a1.46,1.46,0,0,0,1.46,1.47h5.87a1.47,1.47,0,0,0,0-2.94h-5.87A1.46,1.46,0,0,0,139.8,421.81Z" transform="translate(-47.5 -329.19)"/><path class="cls-7" d="M142.73,382.21a1.46,1.46,0,0,0-1.47,1.46v2.94a1.47,1.47,0,0,0,2.94,0v-2.94A1.46,1.46,0,0,0,142.73,382.21Z" transform="translate(-47.5 -329.19)"/><path class="cls-7" d="M136.86,380.64a1.46,1.46,0,0,0-2,.53h0l-1.46,2.54a1.47,1.47,0,0,0,2.54,1.46l1.46-2.53a1.47,1.47,0,0,0-.52-2Z" transform="translate(-47.5 -329.19)"/><path class="cls-7" d="M130.57,375.8,128,377.26a1.47,1.47,0,0,0,1.47,2.54l2.54-1.47a1.46,1.46,0,0,0-1.47-2.53Z" transform="translate(-47.5 -329.19)"/><path class="cls-7" d="M155.93,371.94h2.94a1.47,1.47,0,0,0,0-2.94h-2.94a1.47,1.47,0,0,0,0,2.94Z" transform="translate(-47.5 -329.19)"/><path class="cls-7" d="M131,370.47a1.47,1.47,0,0,0-1.47-1.47H126.6a1.47,1.47,0,0,0,0,2.94h2.93A1.47,1.47,0,0,0,131,370.47Z" transform="translate(-47.5 -329.19)"/></svg>